HIERARCHY
ROOT Hips
{
	OFFSET -14.64140 90.27770 -84.91600
	CHANNELS 6 Xposition Yposition Zposition Zrotation Xrotation Yrotation
	JOINT Spine
	{
		OFFSET 0.00000 13.20850 -1.60436
		CHANNELS 3 Zrotation Xrotation Yrotation
		JOINT Spine1
		{
			OFFSET 0.00000 8.61716 0.00000
			CHANNELS 3 Zrotation Xrotation Yrotation
			JOINT Spine2
			{
				OFFSET 0.00000 8.61717 0.00000
				CHANNELS 3 Zrotation Xrotation Yrotation
				JOINT Spine3
				{
					OFFSET 0.00000 8.61717 0.00000
					CHANNELS 3 Zrotation Xrotation Yrotation
					JOINT Neck
					{
						OFFSET 0.00000 11.07920 1.10792
						CHANNELS 3 Zrotation Xrotation Yrotation
						JOINT Neck1
						{
							OFFSET 0.00000 7.08032 0.00000
							CHANNELS 3 Zrotation Xrotation Yrotation
							JOINT Head
							{
								OFFSET 0.00000 7.08031 0.00000
								CHANNELS 3 Zrotation Xrotation Yrotation
								End site
								{
									OFFSET 0.00000 0.00000 0.00000
								}
							}
						}
					}
					JOINT RightShoulder
					{
						OFFSET -0.01000 7.91373 5.19711
						CHANNELS 3 Zrotation Xrotation Yrotation
						JOINT RightArm
						{
							OFFSET -18.41580 0.00000 0.00000
							CHANNELS 3 Zrotation Xrotation Yrotation
							JOINT RightForeArm
							{
								OFFSET -29.11090 0.00000 0.00000
								CHANNELS 3 Zrotation Xrotation Yrotation
								JOINT RightHand
								{
									OFFSET -24.65040 0.00000 0.00000
									CHANNELS 3 Zrotation Xrotation Yrotation
									JOINT RightHandThumb1
									{
										OFFSET -5.35114 -0.85590 3.97906
										CHANNELS 3 Zrotation Xrotation Yrotation
										JOINT RightHandThumb2
										{
											OFFSET -4.52789 0.00000 0.00000
											CHANNELS 3 Zrotation Xrotation Yrotation
											JOINT RightHandThumb3
											{
												OFFSET -2.46976 0.00000 0.00000
												CHANNELS 3 Zrotation Xrotation Yrotation
												End site
												{
													OFFSET 0.00000 0.00000 0.00000
												}
											}
										}
									}
									JOINT RightHandIndex1
									{
										OFFSET -14.26970 0.00000 2.88139
										CHANNELS 3 Zrotation Xrotation Yrotation
										JOINT RightHandIndex2
										{
											OFFSET -5.48836 0.00000 0.00000
											CHANNELS 3 Zrotation Xrotation Yrotation
											JOINT RightHandIndex3
											{
												OFFSET -3.01859 0.00000 0.00000
												CHANNELS 3 Zrotation Xrotation Yrotation
												End site
												{
													OFFSET 0.00000 0.00000 0.00000
												}
											}
										}
									}
									JOINT RightHandMiddle1
									{
										OFFSET -14.26970 0.00000 -0.09147
										CHANNELS 3 Zrotation Xrotation Yrotation
										JOINT RightHandMiddle2
										{
											OFFSET -6.17441 0.00000 0.00000
											CHANNELS 3 Zrotation Xrotation Yrotation
											JOINT RightHandMiddle3
											{
												OFFSET -3.56743 0.00000 0.00000
												CHANNELS 3 Zrotation Xrotation Yrotation
												End site
												{
													OFFSET 0.00000 0.00000 0.00000
												}
											}
										}
									}
									JOINT RightHandRing1
									{
										OFFSET -12.69180 0.00000 -3.06433
										CHANNELS 3 Zrotation Xrotation Yrotation
										JOINT RightHandRing2
										{
											OFFSET -5.62556 0.00000 0.00000
											CHANNELS 3 Zrotation Xrotation Yrotation
											JOINT RightHandRing3
											{
												OFFSET -3.56744 0.00000 0.00000
												CHANNELS 3 Zrotation Xrotation Yrotation
												End site
												{
													OFFSET 0.00000 0.00000 0.00000
												}
											}
										}
									}
									JOINT RightHandPinky1
									{
										OFFSET -11.11390 0.00000 -6.03719
										CHANNELS 3 Zrotation Xrotation Yrotation
										JOINT RightHandPinky2
										{
											OFFSET -4.52789 0.00000 0.00000
											CHANNELS 3 Zrotation Xrotation Yrotation
											JOINT RightHandPinky3
											{
												OFFSET -2.46976 0.00000 0.00000
												CHANNELS 3 Zrotation Xrotation Yrotation
												End site
												{
													OFFSET 0.00000 0.00000 0.00000
												}
											}
										}
									}
								}
							}
						}
					}
					JOINT LeftShoulder
					{
						OFFSET 0.01000 7.91373 5.19711
						CHANNELS 3 Zrotation Xrotation Yrotation
						JOINT LeftArm
						{
							OFFSET 18.41580 0.00000 0.00000
							CHANNELS 3 Zrotation Xrotation Yrotation
							JOINT LeftForeArm
							{
								OFFSET 29.11090 0.00000 0.00000
								CHANNELS 3 Zrotation Xrotation Yrotation
								JOINT LeftHand
								{
									OFFSET 24.65040 0.00000 0.00000
									CHANNELS 3 Zrotation Xrotation Yrotation
									JOINT LeftHandThumb1
									{
										OFFSET 5.35114 -0.85590 3.97906
										CHANNELS 3 Zrotation Xrotation Yrotation
										JOINT LeftHandThumb2
										{
											OFFSET 4.52789 0.00000 0.00000
											CHANNELS 3 Zrotation Xrotation Yrotation
											JOINT LeftHandThumb3
											{
												OFFSET 2.46977 0.00000 0.00000
												CHANNELS 3 Zrotation Xrotation Yrotation
												End site
												{
													OFFSET 0.00000 0.00000 0.00000
												}
											}
										}
									}
									JOINT LeftHandIndex1
									{
										OFFSET 14.26970 0.00000 2.88139
										CHANNELS 3 Zrotation Xrotation Yrotation
										JOINT LeftHandIndex2
										{
											OFFSET 5.48836 0.00000 0.00000
											CHANNELS 3 Zrotation Xrotation Yrotation
											JOINT LeftHandIndex3
											{
												OFFSET 3.01859 0.00000 0.00000
												CHANNELS 3 Zrotation Xrotation Yrotation
												End site
												{
													OFFSET 0.00000 0.00000 0.00000
												}
											}
										}
									}
									JOINT LeftHandMiddle1
									{
										OFFSET 14.26970 0.00000 -0.09147
										CHANNELS 3 Zrotation Xrotation Yrotation
										JOINT LeftHandMiddle2
										{
											OFFSET 6.17440 0.00000 0.00000
											CHANNELS 3 Zrotation Xrotation Yrotation
											JOINT LeftHandMiddle3
											{
												OFFSET 3.56744 0.00000 0.00000
												CHANNELS 3 Zrotation Xrotation Yrotation
												End site
												{
													OFFSET 0.00000 0.00000 0.00000
												}
											}
										}
									}
									JOINT LeftHandRing1
									{
										OFFSET 12.69180 0.00000 -3.06433
										CHANNELS 3 Zrotation Xrotation Yrotation
										JOINT LeftHandRing2
										{
											OFFSET 5.62556 0.00000 0.00000
											CHANNELS 3 Zrotation Xrotation Yrotation
											JOINT LeftHandRing3
											{
												OFFSET 3.56744 0.00000 0.00000
												CHANNELS 3 Zrotation Xrotation Yrotation
												End site
												{
													OFFSET 0.00000 0.00000 0.00000
												}
											}
										}
									}
									JOINT LeftHandPinky1
									{
										OFFSET 11.11390 0.00000 -6.03719
										CHANNELS 3 Zrotation Xrotation Yrotation
										JOINT LeftHandPinky2
										{
											OFFSET 4.52789 0.00000 0.00000
											CHANNELS 3 Zrotation Xrotation Yrotation
											JOINT LeftHandPinky3
											{
												OFFSET 2.46976 0.00000 0.00000
												CHANNELS 3 Zrotation Xrotation Yrotation
												End site
												{
													OFFSET 0.00000 0.00000 0.00000
												}
											}
										}
									}
								}
							}
						}
					}
					JOINT pCube4
					{
						OFFSET 0.00000 10.91090 1.10792
						CHANNELS 3 Zrotation Xrotation Yrotation
						End site
						{
							OFFSET 0.00000 0.00000 0.00000
						}
					}
				}
			}
		}
	}
	JOINT RightUpLeg
	{
		OFFSET -9.98441 0.00000 0.00000
		CHANNELS 3 Zrotation Xrotation Yrotation
		JOINT RightLeg
		{
			OFFSET 0.00000 -42.11790 0.00000
			CHANNELS 3 Zrotation Xrotation Yrotation
			JOINT RightFoot
			{
				OFFSET 0.00000 -45.00020 -0.00001
				CHANNELS 3 Zrotation Xrotation Yrotation
				JOINT RightForeFoot
				{
					OFFSET 0.00000 -3.74820 0.00000
					CHANNELS 3 Zrotation Xrotation Yrotation
					JOINT RightToeBase
					{
						OFFSET 0.00000 0.06325 14.43120
						CHANNELS 3 Zrotation Xrotation Yrotation
						End site
						{
							OFFSET 0.00000 0.00000 0.00000
						}
					}
				}
			}
		}
	}
	JOINT LeftUpLeg
	{
		OFFSET 9.98441 0.00000 0.00000
		CHANNELS 3 Zrotation Xrotation Yrotation
		JOINT LeftLeg
		{
			OFFSET 0.00000 -42.11800 0.00000
			CHANNELS 3 Zrotation Xrotation Yrotation
			JOINT LeftFoot
			{
				OFFSET 0.00000 -45.00070 0.00000
				CHANNELS 3 Zrotation Xrotation Yrotation
				JOINT LeftForeFoot
				{
					OFFSET 0.00000 -3.74824 0.00000
					CHANNELS 3 Zrotation Xrotation Yrotation
					JOINT LeftToeBase
					{
						OFFSET 0.00000 0.06325 14.43110
						CHANNELS 3 Zrotation Xrotation Yrotation
						End site
						{
							OFFSET 0.00000 0.00000 0.00000
						}
					}
				}
			}
		}
	}
}
MOTION
Frames: 4
Frame Time: 0.050000
-0.03322846341361795 0.04873016472082227 0.044831145075547196 -0.013813924977046324 0.0014882518298833577 0.013748483861448866 -4.580646071440721 -0.7700521400482898 -0.46913410879759043 -1.0213265347319436 3.445869713002809 0.37134298817195954 -1.4423805725903671 -2.2949921276493286 -0.5469956124132181 -0.6800978994979593 -0.09460109294856207 -0.791108739383849 0.24967922159449868 12.520018040574042 -0.23448382748014635 0.3320593201372457 -0.15338161577545822 -2.8124755517220277 0.6410003612074875 -15.133612065936461 -0.2505673119057021 -7.031343813622004 2.4231592444292027 -12.503274375073342 58.508003056514525 14.833825521898111 29.540022978784368 5.832302205254761 0.4955461651562879 102.26178019966534 20.686594674803867 -0.7573561911802363 -3.997847880674813 4.492656741711986 -0.17188245459583604 -1.57602892534074 0.018098273814200993 -0.013856396140198596 -56.23373967165705 0.038354403790889516 -0.015808532287354005 -56.247970973000896 -38.72653502587392 0.03989867130961819 -0.007549311577560299 -0.03372209314100147 0.019223764621423223 -0.020200737783839177 -0.02979579514174344 0.001908798199065602 -0.02357146715000706 -36.718468617808675 0.017509379107883537 -0.019418163665647123 0.00021828512728996893 0.010970129406768728 -0.003055893795207831 -0.00323040674688461 0.015888087683097196 -0.036782334273684276 -19.766081319139094 0.048644779672144776 -0.044777584985152885 -0.018752775985638057 -0.010957968064004212 -0.007052914350058776 -0.010300242411553326 -0.027509563981890407 -0.004922835358284504 24.048794103788712 0.0313840069244339 0.003212335414979796 28.86511713989257 0.004821044985635845 0.015920070941912796 28.882262674243908 0.01756676324292516 0.039208593163530314 7.158510920617941 1.627291311912847 11.53771627197537 -63.380406620607026 22.655388602035117 -20.90765409675682 -44.59924562314647 5.420468446043344 -94.28472682411932 -11.387615032045243 -2.306367446807523 0.7499028775838356 -0.49591838814248557 0.06169544618312226 -8.101364043261587 -0.0351561778411371 0.025021030514351335 44.56827507641839 -0.010852784265226484 -0.00548562825845236 44.588944486833704 12.477093982487906 0.04610098764735189 -0.030914237007152193 0.048518213930606006 -0.009390436333212945 0.03919480097025306 -0.010989568429923654 -0.04338230977628832 -0.0014461732295492729 11.095644918142012 0.006813266015439681 -0.03926474676351891 -0.009057633095543837 0.04171739999812891 -0.039386638965204994 0.00602660344114524 -0.03686673226994287 -0.001224449361966591 4.7956208508723215 0.049279633816269694 0.027190724828136188 0.009518765903008548 -0.017920156990212183 -0.04019952392194757 0.033790199517711526 -0.030917527315693503 -0.048475515005210204 -5.6244809015226584 -0.03848339597755384 -0.007454887888767762 -6.709973235051322 0.04908425504443154 0.0033163762213830996 -6.688590579966423 -0.027664080649096253 0.004245741777747768 -0.003767379645236471 0.02145354295415478 -0.01969369608833812 8.03282070676888 3.5432477607357886 -19.190445573583805 -0.014385439246332529 10.362979260254841 -0.019161857178282813 -5.587749344803305 -15.698276649280457 3.157632244430093 -0.014958592267202073 0.009699022207170938 0.002716622772795255 -0.00011283716582244516 4.71177067396612 -0.02131380456140728 12.451879670286573 -8.265329453338131 6.874959072467683 0.02945243566298279 46.36538978545484 0.02901736018462331 -4.319081883749901 -14.751316646603662 -3.814162769323464 -0.011671213612724626 -0.023151085745290616 -0.007927953833400652 -0.008617951080948153 -10.759562873471257 0.010066536448874227 
0.008534336092027445 0.044418670246814174 -0.022788483513957125 -0.0015186297702447892 0.03973403125428403 0.042686280700023956 -4.678196299897399 -0.7197180561979315 -0.4780650141758136 -0.9389618313241758 3.495794730758748 0.3863610670664792 -1.4234337742759342 -2.2366439758965972 -0.7221389578349529 -0.691349396788652 -0.0500044955561581 -0.7938058896137664 0.20837020472841786 12.458946601966558 -0.2561146810963227 0.40478229154859796 -0.09817792452534342 -2.6855544871987416 0.6552416523297306 -15.021866795524172 -0.2531429283284825 -6.89984601005961 2.365867084173698 -12.544947930051807 59.95777322810951 14.231668833512462 28.32419592166948 6.007860048409007 0.8147303597673624 101.26273519308896 21.304596921949635 -0.7038273701476306 -4.4793992688574535 4.530822810157197 -0.13382775429167054 -1.6061897699651602 0.024847034796077017 0.020889806854549407 -56.245954049259744 -0.03836247144442963 0.02355071115700039 -56.240160855989984 -38.748331412130824 -0.0402852846103879 -0.03595008079230204 0.033454018910910106 -0.02720137769629823 0.006765814668571618 -0.01735977867465756 -0.03398147721768013 0.0005273578499494098 -36.65046367102803 0.02669633005534503 -0.007198250908007739 0.01959318643406214 -0.04937393471349852 -0.0002857448433358565 0.028112498952700682 0.0003860242177172358 0.017829655650934473 -19.767289697259184 -0.014114347644315926 0.03998352150122928 -0.018186728228018142 0.04621488574013564 0.01419992623175546 -0.027933275884421658 -0.005596996293400234 0.001147760434869022 24.006584454038045 -0.01920962382057436 -0.0065804529289570785 28.867769601392272 -0.0002226588448915964 0.047265560953609134 28.88112168057804 0.038803751725627236 0.049578125914583104 7.21458390732689 1.6437582912864726 11.505527548105078 -63.544295970997524 22.64415760596355 -21.155033043365403 -43.97842179029514 5.479572680677587 -93.83139336134823 -12.285372359296652 -2.883161149380172 1.3224619861449898 -0.4463628423043251 0.09202545080066502 -8.12606615901943 -0.0304207585401966 0.029490131412073333 44.61318231666839 -0.02451027553924758 0.0005959230738704128 44.57765176668042 12.47184812703886 -0.008743438831286997 -0.025759596101079044 -0.026122543158913762 0.03845376929788929 0.010731202279038801 0.04724229454229676 0.012996424891298887 -0.04047339990821657 11.064363978476635 0.0352480645371009 0.028195151641076107 0.029304540390921365 0.04983082449473941 -0.020269540747369464 0.014801358334485516 -0.005270464464370419 -0.01564679108004775 4.762042296786997 0.005813501132328968 0.03666148783837389 -0.032631918576722325 0.006142291435684353 -0.032571728844594354 0.015039482641255245 -0.025732791334081923 -0.016712519984847022 -5.579055113703363 -0.023883251835895743 0.0263579778923118 -6.723291927369405 0.03160117537736559 -0.029654826595631283 -6.7156862095192125 0.017839405714892217 -0.021910201405086285 -0.04436105427253519 0.002537150324186669 -0.004958208088613517 8.028828008696784 3.4772142086037965 -19.221315016732444 -0.04077837073749371 10.365012695199871 0.05569478575257629 -5.656765859995171 -15.670088770757006 3.2396328059590394 0.02447230111161048 0.02118819682506954 0.024125746571237467 -0.016911668211903146 4.723076999878818 -0.008911769476407289 12.440578896780732 -8.22545522543852 6.879050664688911 -0.002677775978729261 46.405070804821946 0.044067158114564076 -4.288290730556444 -14.72121326047182 -3.8458602031995444 0.017186362861262138 -0.0005780022991257453 -0.041935949326719686 0.019541234309686815 -10.706609851920796 -0.025043442767126424 
0.037361189553474256 0.04698912182945299 0.003336613683643236 -0.00538285544495158 0.007740897555928725 0.010985904276761233 -4.578880721140343 -0.6437861370424807 -0.5190840370234798 -0.9834110504955699 3.4476829226988532 0.35118414000829257 -1.4212235822251655 -2.2478810239450127 -0.8213403402141382 -0.6655526723619002 -0.028863982961468707 -0.833704675821712 0.2582538618435436 12.500584983297099 -0.2905427189975348 0.4001825216236845 0.04748043892922816 -2.7862048430700943 0.6168699492873995 -14.916637883433935 -0.2771139413526902 -6.812093842633903 2.365650137151111 -12.474746923561586 61.01798657596257 14.52774275295508 28.190446766746092 6.406474897161965 1.1319879815263594 100.31780949475403 21.768995451641953 -0.7512645240224615 -4.762249469264666 4.574072114870679 -0.14995262659811515 -1.592003243030055 0.04860254966714369 0.023026191470323462 -56.249753492599886 -0.033682618709300095 -0.005031777691160546 -56.18666984616023 -38.816121529460055 0.02591309431333873 0.029725951680144407 -0.021114867357432416 -0.04601223655534046 0.008779062901254719 -0.014090631619062363 -0.03659024407984818 0.029662354904848892 -36.71325311384442 0.008646546543531834 0.025379623737634822 -0.008813585295858949 0.00141285785767442 -0.016048323626764102 -0.0374554499853904 -0.026735744075821907 0.01877595381517439 -19.745081828603812 0.03373464432915354 -0.030899852149110372 -0.04551211327755753 0.041411830627780526 -0.03912991978025707 -0.019970172976324602 0.007069079527968752 -0.020964295863657955 24.03316060521402 0.002344955444887104 0.0360703736535525 28.857294841589855 -0.02428968015741087 0.013338242635314345 28.855808933327875 0.0037845736510267436 -0.035154478153545304 7.426977628755728 1.7389065318726484 11.452289713268552 -63.01782264353913 23.188769172677368 -22.58907950681965 -39.675233673619466 4.360119715244588 -93.28293907616859 -13.109956087863212 -3.7910064788670423 2.2337034530210924 -0.4765098264097558 0.04906470314241164 -8.112750083872623 0.0195433679533046 -0.011781079808167897 44.604468503326814 -0.045212025793040116 -0.008027864539647588 44.59187794945637 12.415485525468833 -0.04772260104389765 0.028896047904921035 -0.013951869009989256 0.004228360087581999 0.0074245984996958985 0.005133944562571639 0.012569634653723712 -0.019948357710965224 11.099674003370312 0.03920523292442883 -0.01756978529749481 0.02871017349224626 0.007081368919574625 0.009187688926516967 0.009762516534438968 0.04975209183196143 -0.011831981940259787 4.743997905962781 0.04495142358907448 0.0010151106512184156 0.016830344063740014 0.005032531592741532 -0.008836077108506974 0.0066413241835754306 0.03682629674897352 0.002152957335964332 -5.558067906210295 0.004192573276943899 0.04852813765880127 -6.74443403792112 -0.020926114864988316 -0.0369335813961309 -6.754983129755944 -0.02684887754663199 0.027092506441799478 -0.030151723727637626 0.0014453442282123137 0.03222172879899563 8.05080673317173 3.5017931897495855 -19.253383779557065 0.04728830594286885 10.407276818725974 -0.021917758620880214 -5.6225872244437145 -15.65161853549277 3.1667693920120303 0.033217814809425976 -0.02251024932323018 0.013025754983956027 -0.019157608476607472 4.7334254715907385 -0.03396977328238052 12.437831364395135 -8.212684489972125 6.855929695066347 0.019095727755197807 46.370404473141484 0.03898630244192149 -4.352583040381053 -14.788213456783005 -3.843186102391524 -0.04220160799680799 -0.00598114039540106 -0.001168351730897372 0.011577481670025218 -10.726918855757043 -0.010179845926474208 
0.04527752548110628 0.01429840400601121 0.003898402464796192 -0.03553187649743298 -0.04995250876140183 -0.018590020713096077 -4.562532383026395 -0.5992173123618508 -0.4792639514882595 -0.9326251224058488 3.440797593305631 0.34740916844017833 -1.3879090025742522 -2.2735841571282016 -0.9688902100284633 -0.6038178519064827 -0.08382177132456012 -0.8693048404537828 0.22861042841225843 12.513486351763179 -0.4375045159447934 0.3842041506020927 0.1596463151580021 -2.9014295778503176 0.5926135524182969 -14.735494758793369 -0.23967550687724407 -6.805768247427089 2.3773411345911764 -12.360044901939947 61.628908602425675 15.653547183765818 28.405202465616878 6.87471243188505 1.3068397940575351 99.624476680685 22.128231055173917 -0.6693961781883371 -5.059865369198466 4.559860138095208 -0.09420543409935708 -1.6230999386826674 -0.005768532779103817 0.03580036370505046 -56.255142431850025 0.015222159191991264 0.013549393712946693 -56.19683159069452 -38.75569124539479 -0.026637740763808065 -0.0132382542139718 0.024467235348855587 0.01360810986196682 0.0019400260565613585 -0.00630802082449094 0.007815677358392637 0.017763146776946976 -36.672283480434196 -0.03604806079941916 -0.030992039140041523 -0.01096112878494849 -0.015577556018761136 0.022729400486012297 -0.01726141469203622 -0.003080727486851516 -0.04627145974743325 -19.71267032503095 -0.0205689184473316 -0.03307585841528776 0.02267916765158919 -0.03412246658454505 0.04407472188598087 0.015548957914726578 -0.028520302088307147 -0.04012416485212581 24.04905996717592 0.014927851337530766 0.01803097732002577 28.863110838468998 0.035315729844742336 -0.021452012536226847 28.910963156943858 0.016099737931022044 0.03361125120491524 7.722311984897029 1.800963586121864 11.260576997550485 -62.1722857654648 23.75111015253265 -24.519439868563186 -34.002190761641934 2.7711207596634875 -93.37277495005432 -13.704032515905755 -4.904328394749723 3.1764709464988607 -0.4281418979457201 0.09638223636575352 -8.103495154463022 -0.0437236137030808 -0.0226994973074235 44.59230242394066 -0.04629329541172948 0.0209242577169046 44.57288680678939 12.433508512065217 0.02819851458961059 0.0499545671071978 0.01582929963400022 0.03647542694036673 -0.021361644686818265 -0.034542169740881486 0.03309857104113667 -0.006394572675031991 11.084099033054963 -0.010203862882586616 -0.0029192619818721797 0.037892970991165294 -0.0012397176336895307 -0.02400431784485008 0.016940735615926093 -0.027326412365955097 -0.012890196631130956 4.797767670892647 -0.0387564387669415 -0.0034790436204640575 0.04915643321557796 -0.03523799606811734 0.012642691238813397 -0.015984418077590733 -0.005456941339038743 0.0321448899189747 -5.584148450225245 -0.0316910798385575 0.028910752105190327 -6.700142938929318 0.02047676542444925 -0.02622502263940874 -6.724799117397466 -0.008865576149901432 -0.01637230479096075 -0.04347457279621712 0.015083670978245712 -0.04510569983848608 7.99831641331262 3.490237563911562 -19.254835580327907 0.003760458609877431 10.386050334737249 0.05669905991850237 -5.602263471037622 -15.654885634360205 3.2148606442402214 -0.04512873973471 0.0076013328262028714 -0.0031083675137125867 -0.026642676503635998 4.732183162168224 0.019353780263186245 12.47466214613219 -8.27868966426283 6.92947358021513 -0.0004952725953463551 46.36109026534482 0.005304849361090273 -4.320787924388691 -14.791718262343538 -3.8088989218961538 -0.010608997669386699 0.017864669739751933 -0.004049301392007371 0.03655707065146042 -10.776467673903323 -0.008348016840730261 
